/* XPM */
static char *_06e61de0f184c4ac451e9ec73adb710yFMS0AJ5n9IwBo7S[] = {
/* columns rows colors chars-per-pixel */
"72 72 159 2 ",
"   c #EDD7AD",
".  c #000000",
"X  c #040800",
"o  c #090A05",
"O  c #070708",
"+  c #0B0B0C",
"@  c #0F1405",
"#  c #111406",
"$  c #11150A",
"%  c #191C0E",
"&  c #0A0910",
"*  c #141413",
"=  c #171911",
"-  c #1A1C13",
";  c #17171B",
":  c #18171B",
">  c #1D1D1C",
",  c #1E2113",
"<  c #1E2119",
"1  c #202313",
"2  c #23251A",
"3  c #242919",
"4  c #2C2F1F",
"5  c #242424",
"6  c #282A21",
"7  c #2B2B2C",
"8  c #2F3225",
"9  c #323525",
"0  c #32302F",
"q  c #302F32",
"w  c #333333",
"e  c #383736",
"r  c #3C3C3C",
"t  c #3C412E",
"y  c #41432D",
"u  c #42492C",
"i  c #434633",
"p  c #444835",
"a  c #484D39",
"s  c #4E5337",
"d  c #4D513D",
"f  c #545A3E",
"g  c #3E3D40",
"h  c #424242",
"j  c #434348",
"k  c #4C4C4D",
"l  c #555A41",
"z  c #595E41",
"x  c #4F4F51",
"c  c #545453",
"v  c #595A56",
"b  c #575759",
"n  c #5D5D5C",
"m  c #5A6141",
"M  c #5E6348",
"N  c #616644",
"B  c #616648",
"V  c #686F4D",
"C  c #6D764D",
"Z  c #71794C",
"A  c #696D54",
"S  c #666859",
"D  c #6C7252",
"F  c #737B58",
"G  c #636363",
"H  c #67656C",
"J  c #6A6A6A",
"K  c #737668",
"L  c #6D6C72",
"P  c #747572",
"I  c #777779",
"U  c #7B7B7B",
"Y  c #788150",
"T  c #7F855E",
"R  c #82895F",
"E  c #83886E",
"W  c #8A9169",
"Q  c #828370",
"!  c #8D8F7E",
"~  c #8D9278",
"^  c #9BA274",
"/  c #838384",
"(  c #878688",
")  c #8E8E8D",
"_  c #929681",
"`  c #90918D",
"'  c #8F8F91",
"]  c #939493",
"[  c #9D9D9D",
"{  c #A09F9F",
"}  c #A0A19E",
"|  c #A7A899",
" . c #A4A4A4",
".. c #A9A9A6",
"X. c #AEAEAD",
"o. c #B5B5B5",
"O. c #B8B8B7",
"+. c #B8B6BF",
"@. c #BCBBBD",
"#. c #C0C0BF",
"$. c #C5C5C5",
"%. c #C8C8C6",
"&. c #C8C7CA",
"*. c #CBCBCB",
"=. c #CFCFD1",
"-. c #D0CFD1",
";. c #D4D4D4",
":. c #D7D8D5",
">. c #D6D6DA",
",. c #D8D7DA",
"<. c #DCDCDC",
"1. c #DEDEE0",
"2. c #E0DFE1",
"3. c #E4E4E4",
"4. c #E7E5EB",
"5. c #E8E7E8",
"6. c gray92",
"7. c #EAEAEA",
"8. c #E9E9E9",
"9. c #EBECEB",
"0. c #ECECEC",
"q. c #EEEEEE",
"w. c #EEEEEF",
"e. c #EBEBEC",
"r. c #F1F1F1",
"t. c gray94",
"y. c #F2F1F2",
"u. c #F3F3F3",
"i. c #F4F4F4",
"p. c gray97",
"a. c #F7F6F7",
"s. c #F3F3F4",
"d. c #FAFBF6",
"f. c #F8F7F8",
"g. c #F8F8F8",
"h. c #F8F9F8",
"j. c #F9F9F9",
"k. c #F9F9F9",
"l. c #FAFBF9",
"z. c #F9F9FA",
"x. c #FAF9FA",
"c. c gray98",
"v. c #FBFAFB",
"b. c #FBFBFB",
"n. c #FAFBFA",
"m. c #FCFCFB",
"M. c #F9F9FC",
"N. c #FBFAFD",
"B. c #FBFCFD",
"V. c gray99",
"C. c #FCFDFC",
"Z. c #FDFDFD",
"A. c #FEFEFD",
"S. c #FDFDFE",
"D. c #FEFDFE",
"F. c #FEFEFE",
"G. c #FFFFFE",
"H. c white",
"J. c #FAFAFA",
/* pixels */
"                                                                                                                                                ",
"                                                                                                                                                ",
"                                                                                                                                                ",
"                                                                                                                                                ",
"                                                                                                                                                ",
"                                                                                                                                                ",
"                                                                                                                                                ",
"                                                                                                                                                ",
"                                                                                                                                                ",
"                                                                                                            - d                                 ",
"                                                                                                        < . . . E . .     Y                     ",
"                                                                                                    m . . . < @.@.. . S . .                     ",
"                                                                                                  l . . O ) ,.;.<.H X.<.: . ,                   ",
"                                                                                                    . P 3.;.*.*.*.:.;.>.} . .                   ",
"                                                                                                    ! 2.*.$.*.5.$.*.%.=.3.. . %                 ",
"                                                                                                  . & *.;.7.G.G.;.;.i.*.2.` N                   ",
"                                                                                                  . O $.G.k.k.k.G.k.G.r.G .                     ",
"                                                                                                  K 2.*.r.k.k.k.f.G.9.,.q . X                   ",
"                                                                                                6 . ;.$.7.N.g.k.g.N.*.>.X.3                     ",
"                                                                                                . . J G.G.k.k.g.g.G.w.#.j                       ",
"                                                                                                ~ *.G.k.k.k.g.k.k.A.w.> . .   % s               ",
"                                                                                              l . G.k.k.k.k.d.G.5.*.=.X.. ] v . .   < .         ",
"                                                                                            % . . n G.k.k.k.G.,.*.*.$.,.;.:.<.. G ] . .         ",
"                                                                                        t . . . w 7.G.k.k.k.G.1.%.%.9.G.k.$.,.7.;.4.* . .       ",
"                                                                                    D . . . * $.G.G.g.g.k.k.k.G.$.*.;.G.k.r.G.G.*.*.&.. . C     ",
"                                                                                  . . . . ` G.G.k.k.k.p.k.k.k.n.5.%.$.r.k.k.k.k.w.%.4.x y       ",
"                                                                              - . . . b G.G.N.k.k.k.g.G.G.k.k.k.G.<.G.k.k.k.k.k.G.,.#.*         ",
"                                                                          d . . . h t.G.k.g.k.k.f.G.p.-.5.N.k.k.p.B.k.k.k.k.k.G.f.;.. . u       ",
"                                                                      - . . . . o.G.G.k.k.p.k.N.G.5.$.*.>.G.k.k.k.G.N.k.k.N.G.3.*.,.c .         ",
"                                                                    . . . . J A.G.k.g.k.d.k.G.r.;.$.;.2.L ] G.G.G.1.*.B.G.r.;.$.-.5.S           ",
"                                                                I + . . e ;.G.k.k.k.g.g.N.g.<.$.*.3. .; . . 2.] 7 >.;.3.3.%.*.<. .* . D         ",
"                                                              w . . . G G.G.k.k.k.k.k.G.7.;.*.<.<.G . . . - Q . . X.' 5 =.1.2.G . . . @         ",
"                                                          7 . . . J G.G.k.k.k.k.k.G.5.*.*.;.<.c . . . 3       9 z   . . j b . . . 1             ",
"                                                      r . . . r G.G.G.k.k.k.k.G.i.*.*.;.3./ . . . .                 Z f   o . .                 ",
"                                                    . . . 7 ,.G.N.k.k.k.k.k.p.;.*.*.,.` + . . =                             Z                   ",
"                                                o . . . J G.G.k.k.k.k.k.G.w.&.*.,.7.r . . . .                                                   ",
"                t                           p . . . k e.G.k.k.k.f.k.B.p.;.$.;.<.I . . . *                                                       ",
"            R . . .   9 m               T . . . > $.G.G.k.k.k.k.G.k.3.&.;.5.[ > . . .                                                           ",
"        V O . . : [ I . . W 2 .     A X . . 5 O.G.G.k.k.k.k.b.b.<.*.%.5.] 7 . . .                                                               ",
"      . . . . ) 5.;.3.: *.+.. . i . . . . X.G.G.k.k.k.k.k.G.7.*.*.;.7.r . . . w                                                                 ",
"        . q <.>.*.$.5.k.*.>.c $.G.. . g G.G.k.f.k.k.n.G.k.;.$.*.5.[ . . . .                                                                     ",
"         .3.*.*.;.B.n.G.;.5.G.G.G.X.$.G.G.k.k.k.k.k.G.<.$.*.<.$.> . . . .                                                                       ",
"      . t <.*.3.G.f.k.k.N.k.k.k.k.G.G.k.k.f.k.k.G.r.*.*.;.5.U . . . .                                                                           ",
"    T . . =.*.*.G.k.k.k.g.k.k.k.k.k.k.k.k.f.G.p.;.$.;.3.] & . . .                                                                               ",
"      0 ;.=.&.*.t.k.k.k.n.k.k.N.k.k.k.f.N.k.3.$.*.3.X.7 . . . l                                                                                 ",
"    9 r 4.=.;.M.N.k.k.k.k.k.k.k.k.k.k.k.e.*.*.,.*.b . . . 2                                                                                     ",
"    . .  .>.&.G.k.k.k.n.k.k.k.k.k.k.k.G.<.;.<.J . . . $                                                                                         ",
"    3 . O 3.<.@.G.k.G.k.k.k.k.k.k.k.k.k.G.) * . . . E                                                                                           ",
"      . . / k . G.G.=.G.k.k.k.k.k.k.N.k.7.b . . 3                                                                                               ",
"      = B   . . k G . o.G.f.k.k.k.k.G.<.*.<.2 ^                                                                                                 ",
"            Z M   # . w G.k.k.k.k.k.k.f.;.L A                                                                                                   ",
"                    U G.k.k.k.N.k.k.k.G.[ . .                                                                                                   ",
"                  . &.G.k.k.k.k.k.k.k.N.G.+ 1                                                                                                   ",
"                . . . G.n.k.k.k.f.d.k.G.G._                                                                                                     ",
"                  * ] 9.G.G.k.n.k.A.G.@.. .                                                                                                     ",
"                8 U <.*.5.*.*.G.k.<.&.>.7 ,                                                                                                     ",
"              $ . . 0.*.&.&.*.7.*.*.-.3.|                                                                                                       ",
"                . . ( ,.;.<.*.*.*.<.#.k .                                                                                                       ",
"                p . . ;./ h 3.;.;.c . . . f                                                                                                     ",
"                  . 2 E . . ] ) O . . .                                                                                                         ",
"                        3 a   . . X F                                                                                                           ",
"                              D 4                                                                                                               ",
"                                                                                                                                                ",
"                                                                                                                                                ",
"                                                                                                                                                ",
"                                                                                                                                                ",
"                                                                                                                                                ",
"                                                                                                                                                ",
"                                                                                                                                                ",
"                                                                                                                                                ",
"                                                                                                                                                ",
"                                                                                                                                                "
};
