/* XPM */
static char *_ec7a281391e4af1d440a163330ae187VUrdt6BWDCf3gmut[] = {
/* columns rows colors chars-per-pixel */
"72 72 17 1 ",
"  c #EDD7AD",
". c #020101",
"X c #55271E",
"o c #6D442A",
"O c #694639",
"+ c #FE2525",
"@ c #8F5C3B",
"# c #A7633F",
"$ c #C87849",
"% c #22B14C",
"& c #B28652",
"* c #D39C5B",
"= c #DEA166",
"- c #E7B76B",
"; c #F3C976",
": c #B1B2B2",
"> c #FEFEFB",
/* pixels */
"                                                                        ",
"                                                                        ",
"     X$ X$                                                              ",
"     X+ X+                                                  ........    ",
"     X+ X+                                                  o#@@###X    ",
"  .+$++ X+$+$                                            .X.&;;$##$#@   ",
"  .XXXX XXXXX                                           .XOX=;;*$$$##   ",
"                                                        OOOO=;;;=#$#@   ",
"  X++++ X++++                                         X#XOOOO@;;;;$$$#X ",
"  .XXX+ X+XXX                           XXX           X#&&&OO@;;;;$$$@X ",
"     X+ X+                              @@#           X@;;;OO@;;;;$$$@X ",
"     X+ X+          #OOOOO#OOOO.   .###@=--#X        OO.;;;;;-X=;;$$$#X ",
"     .X .X %%    ...*@OOOO*OOOXXooXo@&$&*==@X        XOO#=;;;-&-;;$##.. ",
"        ........%oOX-#OOO@-@OOOO####@*==**=@X        XOOO&-;;;;;;;$#@   ",
"        X#@@@@#@XOOO-#OO$==@OO=====-;;;=$$-@X        XOOOOO;;;;;=o#X    ",
"       o&--***OoOO@*=#OO=;;@OO-;;*==;;-$$$-@X        O&-===O=;;&O...    ",
"       @*;-=**@O@O#--#OO=;;@O@;;;===;;-$$$-#o.       o#-;;;O=;;#o       ",
"       @*;#$$o*--O&;;&OO=;;@#;;;;;-*;;-#$$=-$#        .o;;;;;;;#o       ",
"       @*;$#@o*=;O#;;&O;;;;O@;;;;;;;;;;-;-*=&@        .oO&;;;;;#o       ",
"       @*;##&&=-;&*;;&O;;;;&&;;;;;;;;;;;;-*=&@        .XO#*;;;=#o       ",
"       #*;o&=;;;;;;;;#O;;;;;;;;;;;;;;;;;;-*=&@        .oOOO;;-##o       ",
"        X@;;;;;;;;;;;;;;;;;;;;;;;;;;;;;;;-*=&@#       .XOOOX=;$#o       ",
"        X@;;;;;;;;;;;;;;;;;;;;;;;;;;;;;;;;-=&@@OOOXXX .O&&&&&&$#o       ",
"        X@;;;;;;;;;;;;;;;;;;;;;;;;;;;;;;;;;=&@@@OO@##.X@;;;;@O$#o       ",
"       #*;;;;;;;;;;;;;;;;;;;;;;;;;;;;;;;;;;=&@@OOO-;;#@o;;;;-=$#        ",
"       @*;;;;;;;;;;;;;;;;;;oO;;;;.Xo;;;;;-==*$@@@O@&;==*;;;-*$#X.       ",
"       @*;;;;;;;;=-;;;;;;--.o;==-...--;;;-====@@@OO@;;;;;;;*$#@.        ",
"       @*;;;;;;;;.X-==-==&.;;;...>>>.&;;;;;*==-#@OO@;;;;;-*#$##.        ",
"       @*;.....o;-@.$o.$$#....;;;>>>.&;;;;;*===#@@==O-;;;-*#$##.        ",
"       @*;..OOOO&&O.$X.$#o.OOO>>>>>>.&;;;;;====&#o--@;;;;-*$##          ",
"       @*;.:>>>:....$X.$...;>>>>>>>>.&;;;;;;-*==*o-;;;;;;-*$#o          ",
"       @*;.:>>>>>>@.$$#$$#.;>>>>>>>>.&;;;;;;-*==*o@&;;;;;-*$#o          ",
"       @*;.:>>>>>>&.$$$$$#XO:>>>>>:@o=;;;;;;--*=*&@#*;;;;-*$#           ",
"       @*;.:>>>>>>@.$$$$$$$.O>>>>>O.;;;;;;;;;;*==-#@o;;;;-*$#           ",
"       @*;;X.>>>>>&.$$$$$$$$o.....@;;;;;;;;;;;*===-*@o&;;-*$#           ",
"     .X@&;;&@OOOOOOoXXXX#$$$#ooO@@=;;;;;;;;;;;=&###@oo&;;-**#           ",
"    .X#@*;;;-.....X*....@$$$$$$*-;;;;;;;;;;;;;*@OOOOXX@;;-==#o          ",
"    @#o=-;;;;;;;--==;o.;=======-;;;;;;;;;;;;;;XOOOOO.;;;;-*==*          ",
"    o#*=-;;;;;;;----;O.;-------;;;;;;;;;;;;;;;&$$$*&o;;;;;-*=*@         ",
"    o#**=;-;;;==;;;;;O.=-;;;;;;-&;;;;;;;;;;;;;=====*o;;;;;;*=*@         ",
"    XOOO&-*-;;..;;;;;O..&;;;;;;O.;;;;;;;;;;;;;====-*o;;;;;;*=*@.        ",
"    ..OOOO=-;;-&.....X##X......O-;;;;;;;;;;;;;O@@@OoX-;;;;;*=*@.        ",
"     .O##@--;;;=o..O.X##X...XO.o&;;;;;;;;;;;-=OOOOO@O;;;;;;*=*@.        ",
"     .#--=;;;;;;;.O>X######X=>#X.>;;;;;;;;;;&XOOO.-;;;;;;;;*=*@.        ",
"    XoXO&-=-;;;;;.X#######X======.@;;;;;;;;*===#@@-;;;;;;-*==*@.        ",
"    XoXO@&#=;;;;;OoX#####$#======.@;;;;;;;-====#@o-;;;;;;-*==*@.        ",
"    XOXOOOO*;;;;;;@.###X=========.@;;;;;;-*===-&@o=;;;;;;-*==*@.        ",
"       OXX;==;;;;;@.#============.@;;;;;;--OOO..O;;;;;;;;-*==*@.        ",
"       .XO#*=;;;;;=&.@=;======;==.@;;;;;-*#XOX*&&;;;;;;;-====*@.        ",
"        XOO&*;;;;;;;.O=>=====$>-=.&;;;;;=$oOOO;;;;;;---;*====*@.        ",
"        .O@@#=;;;;;;;o...........>;;;;;;;*o;;;;;;;;-####=====*#.        ",
"        .....##&-===-*&&&&&&&&&&&;;;;;;;;-=;;;;;;;*$$$$*====&@..        ",
"            .oo@******========***;;;;;;;;;;;;;;---$#$$$=====#o          ",
"               .@oooo&-======-ooo=-;;;;;;;;;;;;*##$$$#$*;-=-&o          ",
"               .@***=&@@@@@##@****-;;;;;===$$$$$$$$$#-;;;&O@OX          ",
"               .@--==&####@oo@===--;;;;;=**$#####$$$*;;;&@OOX.          ",
"               .@;-*=$$$$##..@==*;;;;;;;=*$$#@###$#$;;;;XOOX.           ",
"               .@;;;*==#$##..@==*;;;;;;;=&@@##  .@-;;;;;;;-#.           ",
"               .O@&&-=*#$##..@==-;;;;;;-=$@XXX  .@-;;;;;&&#O            ",
"               .OXOO;-*#$##..@=-;;;;;;;*=$#     .@-;;;;;OOO             ",
"                 XOOX#=#$##.  o&;;;;;;-OOOO     .@-;;;&XOO              ",
"                 o#==--*$##.  @&;;;;;&@O@o.     .@-;;;-$@@              ",
"                 O&--;;=$##.  @&;;;;;#O@@o      .@-;;-=*@@              ",
"                 XXXO&;=$##.  @&;;;;;---#o      .@-;;OXXO               ",
"                 ..XOO@=**@.  @&;;;;;#@@OX      .@-=OOOO                ",
"                  .O#@@-=*@.  @&;;;;=@OOX.      .@--@@O                 ",
"                  X@;;;;-*#.  #*;;;-XOOX        .#-;--*                 ",
"                  X@;;;;&o     X#;-===*#.         o###                  ",
"                   X****oX     .X=&&&&#X.         XXXX                  ",
"                    ####.        #####o                                 ",
"                                                                        ",
"                                                                        "
};
