/* XPM */
static char *_3c5a0e8f79f4164ca70415fd1447c71fz0A8sfI2vvvcE2e[] = {
/* columns rows colors chars-per-pixel */
"72 72 17 1 ",
"  c #EDD7AD",
". c #020101",
"X c #55271E",
"o c #6D442A",
"O c #694639",
"+ c #FE2525",
"@ c #8F5C3B",
"# c #A7633F",
"$ c #C87849",
"% c #22B14C",
"& c #B28652",
"* c #D39C5B",
"= c #DEA166",
"- c #E7B76B",
"; c #F3C976",
": c #B1B2B2",
"> c #FEFEFB",
/* pixels */
"                                                                        ",
"                                                                        ",
"                                                              $X $X     ",
"    ........                                                  +X +X     ",
"    X###@@#o                                                  +X +X     ",
"   @#$##$;;&.X.                                            $+$+X ++$+.  ",
"   ##$$$*;;=XOX.                                           XXXXX XXXX.  ",
"   @#$#=;;;=OOOO                                                        ",
" X#$$$;;;;@OOOOX#X                                         ++++X ++++X  ",
" X@$$$;;;;@OO&&&#X           XXX                           XXX+X +XXX.  ",
" X@$$$;;;;@OO;;;@X           #@@                              +X +X     ",
" X#$$$;;=X-;;;;;.OO        X#--=@###.   .OOOO#OOOOO#          +X +X     ",
" ..##$;;-&-;;;=#OOX        X@==*&$&@oXooXXOOO*OOOO@*...    %% X. X.     ",
"   @#$;;;;;;;-&OOOX        X@=**==*@####OOOO@-@OOO#-XOo%........        ",
"    X#o=;;;;;OOOOOX        X@-$$=;;;-=====OO@==$OO#-OOOX@#@@@@#X        ",
"    ...O&;;=O===-&O        X@-$$$-;;==*;;-OO@;;=OO#=*@OOoO***--&o       ",
"       o#;;=O;;;-#o       .o#-$$$-;;===;;;@O@;;=OO#--#O@O@**=-;*@       ",
"       o#;;;;;;;o.        #$-=$$#-;;*-;;;;;#@;;=OO&;;&O--*o$$#;*@       ",
"       o#;;;;;&Oo.        @&=*-;-;;;;;;;;;;@O;;;;O&;;#O;=*o@#$;*@       ",
"       o#=;;;*#OX.        @&=*-;;;;;;;;;;;;&&;;;;O&;;*&;-=&&##;*@       ",
"       o##-;;OOOo.        @&=*-;;;;;;;;;;;;;;;;;;O#;;;;;;;;=&o;*#       ",
"       o#$;=XOOOX.       #@&=*-;;;;;;;;;;;;;;;;;;;;;;;;;;;;;;;@X        ",
"       o#$&&&&&&O. XXXOOO@@&=-;;;;;;;;;;;;;;;;;;;;;;;;;;;;;;;;@X        ",
"       o#$O@;;;;@X.##@OO@@@&=;;;;;;;;;;;;;;;;;;;;;;;;;;;;;;;;;@X        ",
"        #$=-;;;;o@#;;-OOO@@&=;;;;;;;;;;;;;;;;;;;;;;;;;;;;;;;;;;*#       ",
"       .X#$*-;;;*==;&@O@@@$*==-;;;;;oX.;;;;Oo;;;;;;;;;;;;;;;;;;*@       ",
"        .@#$*;;;;;;;@OO@@@====-;;;--...-==;o.--;;;;;;-=;;;;;;;;*@       ",
"        .##$#*-;;;;;@OO@#-==*;;;;;&.>>>...;;;.&==-==-X.;;;;;;;;*@       ",
"        .##$#*-;;;-O==@@#===*;;;;;&.>>>;;;....#$$.o$.@-;o.....;*@       ",
"          ##$*-;;;;@--o#&====;;;;;&.>>>>>>OOO.o#$.X$.O&&OOOO..;*@       ",
"          o#$*-;;;;;;-o*==*-;;;;;;&.>>>>>>>>;...$.X$....:>>>:.;*@       ",
"          o#$*-;;;;;&@o*==*-;;;;;;&.>>>>>>>>;.#$$#$$.@>>>>>>:.;*@       ",
"           #$*-;;;;*#@&*=*--;;;;;;=o@:>>>>>:OX#$$$$$.&>>>>>>:.;*@       ",
"           #$*-;;;;o@#-==*;;;;;;;;;;.O>>>>>O.$$$$$$$.@>>>>>>:.;*@       ",
"           #$*-;;&o@*-===*;;;;;;;;;;;@.....o$$$$$$$$.&>>>>>.X;;*@       ",
"           #**-;;&oo@###&=;;;;;;;;;;;=@@Ooo#$$$#XXXXoOOOOOO@&;;&@X.     ",
"          o#==-;;@XXOOOO@*;;;;;;;;;;;;;-*$$$$$$@....*X.....-;;;*@#X.    ",
"          *==*-;;;;.OOOOOX;;;;;;;;;;;;;;-=======;.o;==--;;;;;;;-=o#@    ",
"         @*=*-;;;;;o&*$$$&;;;;;;;;;;;;;;;-------;.O;----;;;;;;;-=*#o    ",
"         @*=*;;;;;;o*=====;;;;;;;;;;;;;&-;;;;;;-=.O;;;;;==;;;-;=**#o    ",
"        .@*=*;;;;;;o*-====;;;;;;;;;;;;;.O;;;;;;&..O;;;;;..;;-*-&OOOX    ",
"        .@*=*;;;;;-XoO@@@O;;;;;;;;;;;;;-O......X##X.....&-;;-=OOOO..    ",
"        .@*=*;;;;;;O@OOOOO=-;;;;;;;;;;;&o.OX...X##X.O..o=;;;--@##O.     ",
"        .@*=*;;;;;;;;-.OOOX&;;;;;;;;;;>.X#>=X######X>O.;;;;;;;=--#.     ",
"        .@*==*-;;;;;;-@@#===*;;;;;;;;@.======X#######X.;;;;;-=-&OXoX    ",
"        .@*==*-;;;;;;-o@#====-;;;;;;;@.======#$#####XoO;;;;;=#&@OXoX    ",
"        .@*==*-;;;;;;=o@&-===*-;;;;;;@.=========X###.@;;;;;;*OOOOXOX    ",
"        .@*==*-;;;;;;;;O..OOO--;;;;;;@.============#.@;;;;;==;XXO       ",
"        .@*====-;;;;;;;&&*XOX#*-;;;;;@.==;======;=@.&=;;;;;=*#OX.       ",
"        .@*====*;---;;;;;;OOOo$=;;;;;&.=->$=====>=O.;;;;;;;*&OOX        ",
"        .#*=====####-;;;;;;;;o*;;;;;;;>...........o;;;;;;;=#@@O.        ",
"        ..@&====*$$$$*;;;;;;;=-;;;;;;;;&&&&&&&&&&&*-===-&##.....        ",
"          o#=====$$$#$---;;;;;;;;;;;;;;***========******@oo.            ",
"          o&-=-;*$#$$$##*;;;;;;;;;;;;-=ooo-======-&oooo@.               ",
"          XO@O&;;;-#$$$$$$$$$===;;;;;-****@##@@@@@&=***@.               ",
"          .XOO@&;;;*$$$#####$**=;;;;;--===@oo@####&==--@.               ",
"           .XOOX;;;;$#$###@#$$*=;;;;;;;*==@..##$$$$=*-;@.               ",
"           .#-;;;;;;;-@.  ##@@&=;;;;;;;*==@..##$#==*;;;@.               ",
"            O#&&;;;;;-@.  XXX@$=-;;;;;;-==@..##$#*=-&&@O.               ",
"             OOO;;;;;-@.     #$=*;;;;;;;-=@..##$#*-;OOXO.               ",
"              OOX&;;;-@.     OOOO-;;;;;;&o  .##$#=#XOOX                 ",
"              @@$-;;;-@.     .o@O@&;;;;;&@  .##$*--==#o                 ",
"              @@*=-;;-@.      o@@O#;;;;;&@  .##$=;;--&O                 ",
"               OXXO;;-@.      o#---;;;;;&@  .##$=;&OXXX                 ",
"                OOOO=-@.      XO@@#;;;;;&@  .@**=@OOX..                 ",
"                 O@@--@.      .XOO@=;;;;&@  .@*=-@@#O.                  ",
"                 *--;-#.        XOOX-;;;*#  .#*-;;;;@X                  ",
"                  ###o         .#*===-;#X     o&;;;;@X                  ",
"                  XXXX         .X#&&&&=X.     Xo****X                   ",
"                                 o#####        .####                    ",
"                                                                        ",
"                                                                        "
};
