/* XPM */
static char *c6eb403f31284a56dd5adf0f1ab55c4fppnYAjjo1c4kYHSu[] = {
/* columns rows colors chars-per-pixel */
"72 72 102 2 ",
"   c #030303",
".  c #0C0000",
"X  c #060608",
"o  c #080409",
"O  c #0B0B0B",
"+  c #160602",
"@  c #180805",
"#  c #0A0E14",
"$  c #0F1014",
"%  c #0E1218",
"&  c #131414",
"*  c #161719",
"=  c #17191C",
"-  c #1C1B1B",
";  c #331F0F",
":  c #211F1E",
">  c #1F211E",
",  c #34210E",
"<  c #20201B",
"1  c #39261C",
"2  c #1E1F21",
"3  c #201F20",
"4  c #222222",
"5  c #2B2B2B",
"6  c #392C22",
"7  c #333333",
"8  c #3D3934",
"9  c #3A3A3A",
"0  c #694924",
"q  c #7B562C",
"w  c #7A5828",
"e  c #6D5631",
"r  c #6E583B",
"t  c #715C38",
"y  c #7E6132",
"u  c #7E6038",
"i  c #414141",
"p  c #4E4443",
"a  c #555555",
"s  c #5B5B5B",
"d  c #776951",
"f  c #656565",
"g  c #686868",
"h  c #737373",
"j  c #7E7E7E",
"k  c #9D7637",
"l  c #9E753A",
"z  c #A0743D",
"x  c #A47C43",
"c  c #B68231",
"v  c #B88230",
"b  c #B4853C",
"n  c #B9873E",
"m  c #B7883F",
"M  c #BB893F",
"N  c #EDD7AD",
"B  c #B78840",
"V  c #BB8B41",
"C  c #A38763",
"Z  c #B19676",
"A  c #B19B77",
"S  c #C28D42",
"D  c #C39043",
"F  c #C89446",
"G  c #C7964C",
"H  c #CA9649",
"J  c #CB9949",
"K  c #C09759",
"L  c #CFA35B",
"P  c #D0A35D",
"I  c #C19D64",
"U  c #D1A662",
"Y  c #C7A775",
"T  c #C8A877",
"R  c #C7A878",
"E  c #CAAA7B",
"W  c #828282",
"Q  c #898A8A",
"!  c #959595",
"~  c #9B9B9B",
"^  c #A2A2A1",
"/  c #ACACAC",
"(  c #AEAFB1",
")  c gray69",
"_  c #CEB389",
"`  c #D1B283",
"'  c #D8B582",
"]  c #D9B989",
"[  c #C6C6C6",
"{  c #CCCCCD",
"}  c #DDDDDD",
"|  c #E7E7DF",
" . c #E8E7DF",
".. c #E4E4E3",
"X. c #E8E7E4",
"o. c #E7EAE6",
"O. c #E9E9E6",
"+. c #E6E7E9",
"@. c #EAEAEA",
"#. c #F2F2F2",
"$. c #FFFFF6",
"%. c #FEFEFD",
/* pixels */
"N N N N N N N N N N N N N N N N N N N N N N N N N N N N N N N N N N N N N N N N N N N N N N N N N N N N N N N N N N N N N N N N N N N N N N N N ",
"N N N N N N N N N N N N N N N N N N N N N N N N N N N N N N N N N N N N N N N N N N N N N N N N N N N N N N N N N N N N N N N N N N N N N N N N ",
"N N N N N N N N N N N N N N N N N N N N N N N N N N N N N N N N N N N N N N N N N N N N N N N N N N N N N N N N N N N N N N N N N N N N N N N N ",
"N N N N N N N N N N N N N N N N N N N N N N N N N N N N N N N N N N N N N N N N N N N N N N N N N N N N N N N N N N N N N N N N N N N N N N N N ",
"N N N N N N N N N N N N N N N N N N N N N N N N N N N N N N N N N N N N N N N N N N N N N N N N N N N N N N N N N N N N N N N N N N N N N N N N ",
"N N N N N N N N N N N N N N N N N N N N N N N N N N N N N N N N N N N N N N N N N N N N N N N N N N N N N N N N N N N N N N N N N N N N N N N N ",
"N N N N N N N N N N N N N N N N N N N N N N N N N N N N N N N N N N N N N N N N N N N N N N N N N N N N N N N N N N N N N N N N N N N N N N N N ",
"N N N N N N N N N N N N N N N N N N N N N & - - - - - - - - - - - * - - - - - - - > 4 5 5 7 7 5 7 7 5 N N N N N N N N N N N N N N N N N N N N N ",
"N N N N N N N N N N N N N N N N N N N N N & - - - - - - - - - - - - - - - - - - - - * - - - - - - - < N N N N N N N N N N N N N N N N N N N N N ",
"N N N N N N N N N N N N N N N N N N N N N $ - - - - - - - - - * - - - - - - - - - - - - - - - - - - : N N N N N N N N N N N N N N N N N N N N N ",
"N N N N N N N N N N N N N N N N N N N N N O : - - - > - - - * > - - - - - - - - - - - - - - - - - - * N N N N N N N N N N N N N N N N N N N N N ",
"N N N N N N N N N N N N N N N N N N N N N & - - - & & - - - > > - - - & - - - - - - - * - - - > = : & N N N N N N N N N N N N N N N N N N N N N ",
"N N N N N N N N N N ~   O               6 ] T E Y T T T E R R R Y Y E T T T E T Y Y E T T T E T T Y `               X   ~ N N N N N N N N N N N ",
"N N N N N N N N N N ~ X 4 - = = - - # # , J V V M M V V V V V V M M V V V V V V M M V V V V V V V V V * * - = = = = < & ) N N N N N N N N N N N ",
"N N N N N N N N N N ~ O 4 - - - - = & # , J V V V V V V V V V V M S V M V V V V M V M V V V V V V V V = * - = - - - < & / N N N N N N N N N N N ",
"N N N N N N N N N N ~ X 4 - - - - - # $ , H V V V M V V V M V V V V V V V V V V M V V V V V V V V V V = * - - - - - < & / N N N N N N N N N N N ",
"N N N N N N N N N N ~ X 4 2 - 2 = = # % ; F B B m V V V V V V V V V V M V M V V V V M V V M V V V B V = = = - - 2 = 4 $ ^ N N N N N N N N N N N ",
"N N N N N N N N N N ~ X 2 2 - - - = % $ ; D B B V V V V M V V M V V V V V D V V V V V V V M V V B n V = = - = - - = 4 & ^ N N N N N N N N N N N ",
"N N N N N N N g 9 2 C U B V V V V S H H C # - - m V V V V V V V V V V V M V M V V V V V V V b = = = = S S M V M V S n J t # - g N N N N N N N N ",
"N N N N N N N g 2 X d P b V V V V V G G C # - - b V V V V V V V V M V V V V V V M V V V M V b - - - * V D M V V V V M F e # & g N N N N N N N N ",
"N N N N N N N s > # d L b M M M V B G G C # - - m V V V V V V V V V V V V V V V V V V V M V m - - - & V S V M V V V m F e # & s N N N N N N N N ",
"N N           Z R E I M M m J w   + . . 1 ' Y Y V M V V M V V V V V V M M V V V V V V V V M M Y Y Y ` . . +   q F m V n K E ` A   .       N N N ",
"N N - - - - $ z M V V V M m F y # - $ $ ; H M B M V M V V V M V V V V V V V V V V V M V V M V V V V V = = : $ u F m V V V V S k $ - - * - N N N ",
"N N - - - - $ l M V V V M m F y $ - $ $ ; H B S V V V M V V V V M V V V V V V M V V V V V V V V V V V = * - # u F m V V V V D k $ - - - - N N N ",
"N N = = - - & l B V V V V m F y # - $ $ ; H V V V V V V V V V V V V V V V V V V V V V V V M V V V V V * * : o t F B V V V V S k & : - - - N N N ",
"N N - - - : % l V V V V V m F y # - & $ ; H V V V M V V V V V V V V V V V M V V V V V V V V V M V V D = * 3 # r F B B V V V D k O - - - - N N N ",
"N N - - - - % z B V V V M m F y $ : $ $ ; H V V V V V V V V V V V V V V V V V V V V V V V V V V V B V = * - # k F B V V V V D k $ : - - - N N N ",
"N N - - - - % l V V V V M b F y # - $ $ ; H V M M n M n V V n V M V M V M V V M M M M n M M V V V V V * * : # t F B V V V V D k $ : * - - N N N ",
"N N - - - - % l M V V V V m F y # - $ $ , H V m : = = - O { #...@._ m V v _ @.o.O.@.( X 2 = 2 B B V V 2 * - # r F B V V V V D k # - - - - N N N ",
"N N - - - : $ z M V V V V B F y % - $ $ ; H V V : = - - O { #.X.@._ c V v ] @.@.@.@.) X 4 = - V V V V * * 2 # k F B V V V V D k & : - - - N N N ",
"N N - - - - & l V V V V V B F y # > $ $ ; H V V : = - - & { #.X.@._ c V c _ @.@.@.@.)   2 = 2 V V B V 2 * - # k F B V V V V D k # - - - - N N N ",
"N N = - - - $ x m V M M V m F y # - $ $ ; H V V : = - - O { #.X.@._ c V c _ @.@.@.@.) X : = 2 B V V V * % = # t F B V V V V D x & : - - = N N N ",
"N N N N N N N p @   r L b b F y # : X O 8 $.@.@.@.@.O.@.@.@.@.@.@.@.@.@.@.@.@.@.@.O.@.@.@.@.@.@.@.@.@.& & < $ u F B B J 0   . p N N N N N N N N ",
"N N N N N N N a > O d L b M D y # - O O 9 %.@.@.@.@.@.@.@.@.@.@.@.@.@.@.@.@.@.@.@.@.@.@.@.@.@.@.@.+.@.& * < $ u F B B F e # & a N N N N N N N N ",
"N N N N N N N a 4 O d P b M F y # - O o 7 %.@.@.@.@.@.@.@.@.@.@.@.@.@.@.@.@.@.@.@.@.@.@.@.@.@.@.@.+.@.* & < # u F B B F e $ & a N N N N N N N N ",
"N N N N N N N a > # d L b M F y $ - O O 7 %.@.@.@.@.@.@.@.@.@.@.@.@.@.@.@.@.@.@.@.@.@.@.@.@.@.@.O.@.@.& & - $ u F B B F e $ & a N N N N N N N N ",
"N N N N N N N a > O d L b V F y $ - O O 7 %.@.@.@.@.@.@.@.@.@.@.@.@.@.@.@.o.@.@.O.@.@.@.@.@.@.@.@.@.@.* * : $ u F m m F e # & a N N N N N N N N ",
"N N N N N N N a 4 # d L b B F y # - O O 7 %.@.@.@.O.@.@.@.@.@.@.@.@.@.@.@.o.@.@.@.@.@.@.@.@.@.@.@.@.@.& & : # u F m m F e $ & a N N N N N N N N ",
"N N N N N N N a 2 O d P b M F y $ - O O 9 $.X.@.O.@.@.@.@.@.@.@.@.@.o.o.o.o.@.@.@.@.@.@.@.@.@.O.@.#.%.& * : # u F B B G e # & a N N N N N N N N ",
"N N N N N N N s 3 # d P b m D y # - $ $ , H M V X.@.@.@.@.@.@.X.@._ v D v _ @.@.@.@.@.@.@.@...V V M S = * : # u F B B F e % * a N N N N N N N N ",
"N N N N N N N s 4 # d L b B F y # - $ $ , H V V  .@.@.@.@.@.@.X.@._ c V c ` @.@.@.@.@.@.@.@...V V V V * = < # u F B m F e $ & a N N N N N N N N ",
"N N N N N N N s > O d L b B D e $ - $ $ , H V V X.@.@.@.@.@.@.X.@._ c V c _ @.@.O.@.@.@.@.@.X.B V V V * & - $ u F B m F e $ * a N N N N N N N N ",
"N N N N N N N f > # d P b V F k # - $ $ ; H V V X.@.@.@.@.@.@.X.@._ c V c _ @.@.@.@.@.@.O.@.X.V V V G * = : # u F B B G e $ & s N N N N N N N N ",
"N N N N N N N g 4 O d P b B F q # > $ $ ; H M V X.@.@.@.@.@.@...@._ c V c _ @.o.@.@.@.@.@.@.| V V V V & = - $ t F B B F e $ * s N N N N N N N N ",
"N N N N N N N N N N ~ X 4 < O Q N N N N N o * - ..@.@.+.O.8 & - 2 = = - * > - - - O a @.@.@.} - = > * N N N N Q & > > & ^ N N N N N N N N N N N ",
"N N N N N N N N N N ~ X 5 < & Q N N N N N X - - ..@.@.+.@.8 $ - - - - - - = - - > O a @.@.#...- - - * N N N N ! & > > & / N N N N N N N N N N N ",
"N N N N N N N N N N ~ X 4 < & ! N N N N N X - - ..@.@.O.@.9 $ - - - - - - - * - - O a @.@.@...- - - * N N N N ! & > > $ / N N N N N N N N N N N ",
"N N N N N N N N N N ~ O 4 > & ~ N N N N N   * - ..@.@.+.@.7 & - - - = - - - - - > O a @.@.@...= - - * N N N N ~ & - > $ / N N N N N N N N N N N ",
"N N N N N N N N N N ~ o i 9 = ! N N N N N   - - } @.@.O.@.9 & - - - = - - - - - : # a @.O.#.| = - - - N N N N ! - 9 9 = ( N N N N N N N N N N N ",
"N N N N N N N N N N N N N N N N N N N N N & - - | @.@.@.@.@.@.X.@.h O 4 o h @.@.@.@.@.@.@.@.} = - - - N N N N N N N N N N N N N N N N N N N N N ",
"N N N N N N N N N N N N N N N N N N N N N $ = - } #.@.O.@.@.@...@.h X < X h @.@.@.@.@.@.@.@...- - - < N N N N N N N N N N N N N N N N N N N N N ",
"N N N N N N N N N N N N N N N N N N N N N & - - ..@.@.@.@.@.@...@.h X : X h @...@.@.@.@.O.#.} 5 - - 4 N N N N N N N N N N N N N N N N N N N N N ",
"N N N N N N N N N N N N N N N N N N N N N & * 5 ..@.@.@.@.@.@...@.h X : o h @...@.@.O.@.@.@.@.7 - - 4 N N N N N N N N N N N N N N N N N N N N N ",
"N N N N N N N N N N N N N N N N N N N N N : 8 9 @.@.@.@.O.@.@...@.h O < O h @.@.@.@.X.@.@.@.O.9 9 9 5 N N N N N N N N N N N N N N N N N N N N N ",
"N N N N N N N N N N N N N N N N N N N N N N N N i 5 3 - # { #.@.@.@.@.@.@.@.@.@.O.@.[ - 9 7 i N N N N N N N N N N N N N N N N N N N N N N N N N ",
"N N N N N N N N N N N N N N N N N N N N N N N N i = - - O { #.@.@.@.@.@.@.@.@.@.@.#.} $ : - 9 N N N N N N N N N N N N N N N N N N N N N N N N N ",
"N N N N N N N N N N N N N N N N N N N N N N N N i * - : $ { #.@.@.@.@.@.@.@.@.@.@.#...& - = i N N N N N N N N N N N N N N N N N N N N N N N N N ",
"N N N N N N N N N N N N N N N N N N N N N N N N 9 - = - & { #.O.@.@.@.@.@.@.@.O.@.#.} & < = i N N N N N N N N N N N N N N N N N N N N N N N N N ",
"N N N N N N N N N N N N N N N N N N N N N N N N i 7 7 8 < @.#.O.@.@.@.@.@.@.@.@.#.%.} - 9 7 i N N N N N N N N N N N N N N N N N N N N N N N N N ",
"N N N N N N N N N N N N N N N N N N N N N N N N N N N N N s & - - = - : 5 5 5 7 9 - j N N N N N N N N N N N N N N N N N N N N N N N N N N N N N ",
"N N N N N N N N N N N N N N N N N N N N N N N N N N N N N s & - - - - = = - - - - & W N N N N N N N N N N N N N N N N N N N N N N N N N N N N N ",
"N N N N N N N N N N N N N N N N N N N N N N N N N N N N N s * : - - - - - - - - > & W N N N N N N N N N N N N N N N N N N N N N N N N N N N N N ",
"N N N N N N N N N N N N N N N N N N N N N N N N N N N N N s * - - - - - - = - - - & W N N N N N N N N N N N N N N N N N N N N N N N N N N N N N ",
"N N N N N N N N N N N N N N N N N N N N N N N N N N N N N s & - - = - - - - - - > & W N N N N N N N N N N N N N N N N N N N N N N N N N N N N N ",
"N N N N N N N N N N N N N N N N N N N N N N N N N N N N N f 5 7 5 5 4 4 3 4 4 7 9 4 W N N N N N N N N N N N N N N N N N N N N N N N N N N N N N ",
"N N N N N N N N N N N N N N N N N N N N N N N N N N N N N N N N N N N N N N N N N N N N N N N N N N N N N N N N N N N N N N N N N N N N N N N N ",
"N N N N N N N N N N N N N N N N N N N N N N N N N N N N N N N N N N N N N N N N N N N N N N N N N N N N N N N N N N N N N N N N N N N N N N N N ",
"N N N N N N N N N N N N N N N N N N N N N N N N N N N N N N N N N N N N N N N N N N N N N N N N N N N N N N N N N N N N N N N N N N N N N N N N ",
"N N N N N N N N N N N N N N N N N N N N N N N N N N N N N N N N N N N N N N N N N N N N N N N N N N N N N N N N N N N N N N N N N N N N N N N N ",
"N N N N N N N N N N N N N N N N N N N N N N N N N N N N N N N N N N N N N N N N N N N N N N N N N N N N N N N N N N N N N N N N N N N N N N N N ",
"N N N N N N N N N N N N N N N N N N N N N N N N N N N N N N N N N N N N N N N N N N N N N N N N N N N N N N N N N N N N N N N N N N N N N N N N ",
"N N N N N N N N N N N N N N N N N N N N N N N N N N N N N N N N N N N N N N N N N N N N N N N N N N N N N N N N N N N N N N N N N N N N N N N N "
};
