/* XPM */
static char *f7766abb0ebc4531fd708aae02c14f64IBK9bN2eoM4p9Vbm[] = {
/* columns rows colors chars-per-pixel */
"72 72 230 2 ",
"   c #EDD7AD",
".  c #0B0B0A",
"X  c #050503",
"o  c #150909",
"O  c #0B180C",
"+  c #17150E",
"@  c #180D15",
"#  c #0F1111",
"$  c #0C1C1D",
"%  c #131313",
"&  c #1A1416",
"*  c #161814",
"=  c #191915",
"-  c #15151B",
";  c #1A151B",
":  c #1D1C1D",
">  c #0E0C13",
",  c #261D11",
"<  c #2D161C",
"1  c #2B191D",
"2  c #281A17",
"3  c #351415",
"4  c #29130E",
"5  c #152315",
"6  c #1A3817",
"7  c #0F2515",
"8  c #2E200D",
"9  c #2B2214",
"0  c #312A1C",
"q  c #2C1721",
"w  c #231821",
"e  c #261921",
"r  c #232323",
"t  c #292929",
"y  c #353535",
"u  c #3E3E3E",
"i  c #343127",
"p  c #4B0000",
"a  c #5B0302",
"s  c #501414",
"d  c #640404",
"f  c #640B05",
"g  c #660B0D",
"h  c #6C0B0C",
"j  c #6A0706",
"k  c #750A0A",
"l  c #77110E",
"z  c #6C0C10",
"x  c #670D14",
"c  c #770C11",
"v  c #671114",
"b  c #7C1313",
"n  c #7D1916",
"m  c #771616",
"M  c #6A110A",
"N  c #792119",
"B  c #4E2F26",
"V  c #6C2827",
"C  c #56211D",
"Z  c #2D4D26",
"A  c #2D4E28",
"S  c #284726",
"D  c #3C4E23",
"F  c #694E2C",
"G  c #6C512D",
"H  c #6E4E33",
"J  c #5C5C5C",
"K  c #555455",
"L  c #58504A",
"P  c #656566",
"I  c #797A7B",
"U  c #747673",
"Y  c #841415",
"T  c #8A1514",
"R  c #891916",
"E  c #8C1619",
"W  c #861A19",
"Q  c #8A1919",
"!  c #841717",
"~  c #951B1A",
"^  c #81100F",
"/  c #892715",
"(  c #913119",
")  c #8F1F21",
"_  c #9D2424",
"`  c #962122",
"'  c #91302E",
"]  c #A22324",
"[  c #AC2525",
"{  c #AC2925",
"}  c #AC2628",
"|  c #AC2A2A",
" . c #A52A2C",
".. c #B12726",
"X. c #B22A2B",
"o. c #B12828",
"O. c #B73335",
"+. c #B12E2E",
"@. c #A41E20",
"#. c #C23435",
"$. c #875D1B",
"%. c #8A5E1E",
"&. c #83501C",
"*. c #8E611E",
"=. c #B3781E",
"-. c #8C5724",
";. c #B15B31",
":. c #8D6120",
">. c #956621",
",. c #B67E29",
"<. c #B97F2D",
"1. c #B57B26",
"2. c #BC7736",
"3. c #B26A29",
"4. c #C37A3C",
"5. c #C27F25",
"6. c #975049",
"7. c #AC4D4F",
"8. c #857B70",
"9. c #D45051",
"0. c #E35659",
"q. c #E7595A",
"w. c #F85D5E",
"e. c #C47A41",
"r. c #C67A46",
"t. c #D56764",
"y. c #EC6063",
"u. c #E96564",
"i. c #E96567",
"p. c #F56566",
"a. c #FF6A70",
"s. c #E85B60",
"d. c #7B837D",
"f. c #BB822D",
"g. c #B7802A",
"h. c #BC8231",
"j. c #C3882D",
"k. c #C4842A",
"l. c #C28632",
"z. c #C58B33",
"x. c #CA8E34",
"c. c #C98E3A",
"v. c #C6893C",
"b. c #CD9238",
"n. c #D79A3D",
"m. c #99825C",
"M. c #AE8248",
"N. c #B69156",
"B. c #95886D",
"V. c #998567",
"C. c #85827A",
"Z. c #8B827C",
"A. c #8D8779",
"S. c #928878",
"D. c #A58A64",
"F. c #AA9367",
"G. c #B2946B",
"H. c #BA9A65",
"J. c #B5946B",
"K. c #BDA162",
"L. c #D89745",
"P. c #CF8A4E",
"I. c #DEA343",
"U. c #D5A85D",
"Y. c #E4A545",
"T. c #EDAF4B",
"R. c #EAAD49",
"E. c #F0AE4C",
"W. c #EDB04C",
"Q. c #EDB045",
"!. c #F3B34C",
"~. c #F7B348",
"^. c #EBAE52",
"/. c #E4AC57",
"(. c #EDB253",
"). c #E9B35D",
"_. c #F3B552",
"`. c #F9B952",
"'. c #FBBB5B",
"]. c #F5B855",
"[. c #D5A861",
"{. c #D5A762",
"}. c #C7A66E",
"|. c #EBB662",
" X c #FFC25C",
".X c #FFC95B",
"XX c #FDC161",
"oX c #FFC86B",
"OX c #7C7E83",
"+X c #787C88",
"@X c #7F8186",
"#X c #6C8BCC",
"$X c #7395DC",
"%X c #7896DC",
"&X c #6A8BD4",
"*X c #898787",
"=X c #9C9E9E",
"-X c #B3B5B3",
";X c #B9B2B1",
":X c #B1AEA8",
">X c #AEA295",
",X c #C4BAAA",
"<X c #BFC2BF",
"1X c #92A5D7",
"2X c #8CA6D7",
"3X c #9EBFF2",
"4X c #8EACE7",
"5X c #A7B5D4",
"6X c #B2CAEC",
"7X c #A2C1F9",
"8X c #B0C8EC",
"9X c #BFC5C5",
"0X c #C1C1C3",
"qX c #CCCCCB",
"wX c #C9C4C2",
"eX c #D3D2D3",
"rX c #DAD5D5",
"tX c #DDD9DA",
"yX c #D6D1CB",
"uX c #D5DCE9",
"iX c #D6DEE7",
"pX c #C1CFE7",
"aX c #ECECEC",
"sX c #E7E6E8",
"dX c #EAECF1",
"fX c #F3EFF1",
"gX c #FDFDFD",
"hX c #F2F2F4",
"jX c #EFF0F0",
"kX c #DCE1DA",
/* pixels */
"                                                                                                                                                ",
"                                                                                                                                                ",
"                                                                                                                                                ",
"                                                                                                                                                ",
"                                                                                                                                                ",
"                                                                                                                                                ",
"                                                                                                                                                ",
"                                                                                                                                                ",
"                                                                                                                                                ",
"                                                                                                                                                ",
"                                                                                                                                                ",
"                                          O = * = - * - = = * = * * * * & * * * * * * * * * * * = ; %                                           ",
"                                          = < 1 1 1 1 q q q q q q q q q < 1 < 1 1 q q q q q 1 1 1 1 2                                           ",
"                                        # v v x v v m v v W Q Q W W R R Q Q W Q W W Q R ! W Q R W W W @ 6                                       ",
"                                      i 2 x k z z h h j l / E E R T T T T T T T T T T T T T T T T T Q 3 0                                       ",
"                                    O 6.q.0.0.q.s.X.| | _ a ) s.q.0.0.0.0.0.0.0.0.0.0.0.0.0.0.0.0.0.0.0.7.# 6                                   ",
"                                    X 7.w.q.w.q.p.X.{ { ] a ) i.p.y.y.y.y.y.y.y.y.y.y.y.y.y.y.y.y.y.y.p.7.o 0                                   ",
"                                7 B s.O.....o.o.X.{ ....| { ~ l l Q E R E E E Q E E E E E E E Q T E T E W n V 5 6                               ",
"                                0 V q.#.[ ] ] ] ] ] _ | [ .._ l b ! Q ~ R R E E R E R R E E E E R ~ E E R ~ m s 0                               ",
"                            . B y.0.@.[ X.d g h f j d  .{ { [ X.` d ] +.X.X.X.| | X.X.+.X.X.X.X.X.X.X.o.+.+.| X.' # 6                           ",
"                            . C q.9.] | O.h h d a d d | X.} } X.) d _ X.} X.o.{ o.o.o.o.........o.o.o.} o.{ o.o.' ; i                           ",
"                        O i t.9...| } T k Y c e.4.v.P.j c X.o.} {  .b k R R T E R T T T T T T E T T E T T T T T W N C O                         ",
"                        X s p.0.} o.| ! g k k 4.f.1.v.p j O.X.o.{ X.l d ! Y Y Y Y Y Y Y Y Y Y Y T Y Y Y Y Y Y ^ ! T v >                         ",
"                      9 t.9.{ [ [ _ h b c e.5.<.<.Y.E.^.P.d Y | { | } | l l | [ } } [ [ [ } } } } } [ } } } } [ } }  .| 9 5                     ",
"                    + 4 p.0.@...X._ d m k v.<.<.=.R.^._.L.p l | [ } [ X.j c O.o.| X.| X.X.| o.o.o.X.o.{ | } o.} | X.o.X.3 ;                     ",
"                  o u.0.@.[ .._ h l ! ;.z.f.1.^._.E.T.E._.'.P.d Y X.} | X. .j j Y Y T Y Y T Y Y Y T Y Y T T T Y Y T T Y W W 2 5                 ",
"                  o i.q.[ [ X.] h k c ;.l.,.=.R.(.W.W.T.^.!.r.p c X...} o.] d d ! W T Y Y Y T Y Y T Y T T Y T T T Y T Y Y W 3 *                 ",
"              # 6.y.[ { { @.j l ! ( v.4.,.).W.W.T.W.W.T.T.T._.'.r.d @.o.} }  .+.k b | } } } { } ] } }  .{ } |  .}  .} [ { |  .' = *             ",
"              o 7.w.] ..{ _ j h ^ ( j.f.1.W.W.W.W.W.T.W.T.W.T.`.2.p ` +...[ { | j b X.| X.X.X.X.X.| X.X.X.X.X.X.X.X.X.X.X.} X. .; ;             ",
"            6.6.O.O.] | Y ! b N ;.3.f.L.n.(.W.W.T.W.!.T.T.W.T.(.L.P.` n } } { | h z ! ! b n n n n ! b n b n n b n n m ! n ! ! m 1 ;             ",
"          X 7.a.#.[ X.| f z c / h.f.1.n._.W.W.W.W.W.W.W.(.W.W.W._..XN p | X.X.O.h z g x g x f g g g x x x x g x x g g g g g z v e w             ",
"            B B ' X.l l Y / 2.2.f.x.R.R.W.W.W.W.T.W.W.W.T.W.W.T.^.!.L.L.n l m b b Y b Y b Y Y Y b Y Y Y b Y Y b Y Y b Y Y n ! m e ;             ",
"              > V #.f j ^ / c.f.,.j.!.!.T.T.W.W.W.T.T.W.T.W.W.W.W.W.!..XM a x z R W R R R R Q Q Q W Q R R R R W R W W E E W E N 2 >             ",
"                  2 n R v.h.f.x.^.R.W.W.T.T.W.R.R.!.W.T.W.W.W.W.W.T.W.`.:.-.d z h z z z z z z h z z z z z z z z z z h l M z 3 9                 ",
"                  + n n l.,.g.j._.T.W.T.!.|.).).).).).W.T.W.W.Q.W.R.W.`.:.&.a g d f f f f f f f f f f f f f f f f f f j g v < 5                 ",
"                    4 s '.^./.W.E.T.T.T._.m.V.B.V.B.m.(.W.^.W.W.W.T.W.`.:.:.e.e.e.e.e.4.4.e.e.e.e.e.e.e.e.e.e.4.e.e.e.P., 3                     ",
"                    $ 2 XXW.W.W.T.W.W.Q.'.8.OXI +XOXU ).W.T.W.T.W.W.W.`.$.$.f.g.,.f.,.,.,.,.,.,.g.g.,.,.,.,.,.,.,.,.g.z.8 ;                     ",
"                    = , XXT.^.R.W.W.~.H.S.eXeXeXeXeXrXS.G.!.T.T.W.W.W.`.%.>.(.Y.Y.Y.Y.Y.Y.Y.Y.Y.Y.Y.Y.Y.Y.Y.Y.Y.Y.Y.Y._.8 ;                     ",
"                    : 8  XT.W.W.W.(.~.D.P gXgXgXgXgXgXU B.`._.W.R.W.W.`.$.>. XR.T.!.(._.].'.].].].`.].].].].].W.W.!.W. X8 ;                     ",
"                    = ,  XT.T.W.Q.U.C.wXgXr y t y i : jXyXC.F.!.W.W.W.`.$.*. XR.T.E.!.H.Z.S.S.S.A.A.A.S.A.A.D.(.Q.R.(. X8 ;                     ",
"                    = ,  XT.T.T.].}.U qXgX; r r r r # gXsXU D.|.(.T.T.`.$.>.'.R.W.W.).J.+XI I OX@XI d.@XI +XB.|.(.W.T. X8 ;                     ",
"                    = , XXT.T.[.8.=XgXK . r r t r t t X y gXyXU J.!.Q.`.$.>.'.W.W.U.U ;XgXaXjXjXjXdXaXaXjXjXkX8.V.!.T. X8 ;                     ",
"                    = , XXT.!.U.Z.=XgXP r t t t t t t ; u hXqX@XG.~.E.`.$.>.'.W.W.{.*X-XaXsXdXsXaXdXdXdXaXsXrX@XB.`.T. X8 ;                     ",
"                    = ,  XT.W.[.A.=XgXP 5 t t r r r r - u gXqX@XG.!.T.`.$.>.'.W.W.U.d.;XjX6X8X8X8X8X6X2X5XjXrXOXB.!.Q. X8 ;                     ",
"                    = ,  XW.Q.[.Z.=XgXP w t r t t 5 : - B gXqXOXG.~.W.`.$.>.'.R.W.[.+X;XjX6X3X3X3X7X7X$X1XhXrX@XB.!.Q. X8 ;                     ",
"                    = ,  XW.W.[.C.=XgXP r t t r r : : : u gXqXOXG.Q.W.`.$.>.'.W.Q.[.+X-XjX6X3X4X2X%X%X$X1XhXrX8.B.!.T. X8 ;                     ",
"                    = , XXT.!.[.C.=XgXP 5 t t : : : : - u gXqXOXG.~.T.`.$.>.'.W.!.[.+X-XjX6X7X4X$X$X$X$X1XhXrXOXB.!.Q. X8 ;                     ",
"                    = , XXW.W.[.C.=XgXP e : : r : : : - u gXqXOXG.~.T.`.$.>.'.T.!.U.+X-XjX5X%X%X$X%X$X$X1XhXrX@XB.`.W. X8 ;                     ",
"                    = , oX(.Q.U.C.=XgXP r 2 : r : : r = u gXqXOXG.!.W.`.$.>.'.W.Q.[.+X-XaX1X#X#X&X#X#X&X2XjXyX@XB.!.Q. X8 ;                     ",
"                    * 9 L.j._.[.C.=XgXJ % r : : : : : . y gXqXOXG.~.W.'.%.>.'.^.!.[.d.-XaXuXuXuXiXuXuXuXiXaXtXOXB.!.W. X8 ;                     ",
"                    = , c.b.'.[.C.=XgXK - w r : : : r . y gXqXOXG.~.W.'.%.>.'._.Q.U.d.;XjXsXaXaXaXaXaXaXaXaXtXd.V.].W.XX8 ;                     ",
"                    = , c.h.I.P.Z.=XgXJ % 5 : : r = - . y gXqX@XG.!.I.Y.$.>.Y.n.E./.H.>X0X<X0X<X-X0X<X<X0XwX,XF.P.(.R.R.8 ;                     ",
"                    * , c.g.g.M.Z.=XgXJ - : : : : # # . y gXqXOXG.`.z.k.$.:.h.,.!.`.~.H.+XOXOX@X@X@X@X@XOX+Xm._.Q.].I.j.9 -                     ",
"                    = , P.g.g.M.Z.=XgXJ % r : - % # # . y gXqX@XD.k.j.k.%.:.h.f.j.b.!./.[.U.[.[.[.[.U.[.U.U.U.W.W.j.h.x.8 =                     ",
"                    5 9 b.f.g.M.Z.=XgXJ % r 9 # # # # . y gXwX@Xm.5.5.l.-.:.l.<.,.z.`.!.~._.!.!.`.!.`.!.`._._._./.g.g.x.9 ;                     ",
"                    O 9 b.f.g.M.*X=XgXJ % % % # # % # . y gXqXOXV.k.f.j.%.>.l.f.h.k.c.x.x.c.c.c.x.c.c.c.c.x.x.z.z.g.h.b.8 ;                     ",
"                    = , c.f.g.M.Z.=XgXJ ; # # # # # # . y gXqX@XD.5.k.k.%.:.l.k.f.f.f.<.g.g.g.<.<.<.<.<.<.<.f.,.f.f.<.c.9 ;                     ",
"                    % , c.f.f.M.Z.=XgXJ . # # % # # % . y gXqX@XV.5.k.k.%.:.l.f.<.h.f.h.h.h.f.f.h.h.h.<.<.h.f.f.f.f.<.x.2 ;                     ",
"                    % , b.j.j.M.*X=XgXK X % # # o # o . y gXeX*XD.k.k.x.>.>.x.l.j.j.j.j.h.j.j.j.j.j.j.j.z.j.j.j.j.j.j.n., &                     ",
"                        G G G G L P *Xy * ; ; ; : ; - ; t *XU K L G G G B B H F F F F F G F G F F F F F F F F F F F F G D                       ",
"                        # - - ; & & @ & w w w w w w w ; ; @ @ ; & ; ; - 5 : : - - - - - - - - - - - - - - - - - - - ; >                         ",
"                                    A A A A A A A A A A A A A A A A A A A A A A Z Z Z Z Z Z Z Z Z Z Z Z Z Z Z Z Z Z Z Z                         ",
"                                                                                                                                                ",
"                                                                                                                                                ",
"                                                                                                                                                ",
"                                                                                                                                                ",
"                                                                                                                                                ",
"                                                                                                                                                ",
"                                                                                                                                                ",
"                                                                                                                                                ",
"                                                                                                                                                ",
"                                                                                                                                                "
};
