/* XPM */
static char *result[] = {
/* columns rows colors chars-per-pixel */
"64 64 244 2 ",
"   c #3D2819",
".  c #3A2B25",
"X  c #3A322C",
"o  c #3A3937",
"O  c #372C3A",
"+  c #431D12",
"@  c #48250E",
"#  c #442718",
"$  c #5B3414",
"%  c #552D0F",
"&  c #693A17",
"*  c #63340E",
"=  c #462727",
"-  c #443529",
";  c #543A29",
":  c #4A2638",
">  c #483938",
",  c #522E3A",
"<  c #653C2E",
"1  c #4A1D2A",
"2  c #3E4839",
"3  c #75461E",
"4  c #46443A",
"5  c #5A4534",
"6  c #774B29",
"7  c #754F33",
"8  c #373A45",
"9  c #373455",
"0  c #2E3671",
"q  c #4E2657",
"w  c #552857",
"e  c #493857",
"r  c #53375D",
"t  c #4B2E47",
"y  c #550772",
"u  c #572666",
"i  c #54306D",
"p  c #663474",
"a  c #691E6A",
"s  c #384547",
"d  c #384854",
"f  c #3B5858",
"g  c #2F5058",
"h  c #3D615A",
"j  c #3B4B68",
"k  c #385968",
"l  c #235578",
"z  c #385A76",
"x  c #254F6D",
"c  c #3A6669",
"v  c #35677B",
"b  c #3D7677",
"n  c #306773",
"m  c #17547C",
"M  c #4C4C4C",
"N  c #464545",
"B  c #584947",
"V  c #42534A",
"C  c #495855",
"Z  c #595858",
"A  c #554C53",
"S  c #665449",
"D  c #665858",
"F  c #6D4F4F",
"G  c #4E635A",
"H  c #766253",
"J  c #444664",
"K  c #51536F",
"L  c #694D6C",
"P  c #546E70",
"I  c #666666",
"U  c #676A6A",
"Y  c #766866",
"T  c #647171",
"R  c #797472",
"E  c #884C1C",
"W  c #98561B",
"Q  c #895728",
"!  c #865C35",
"~  c #985721",
"^  c #A65E23",
"/  c #966939",
"(  c #916637",
")  c #B86B27",
"_  c #AC6C2F",
"`  c #C5722B",
"'  c #C3722C",
"]  c #90674B",
"[  c #A67843",
"{  c #B67D41",
"}  c #835A72",
"|  c #8C7374",
" . c #85594D",
".. c #D08338",
"X. c #B9884B",
"o. c #B28071",
"O. c #C69354",
"+. c #D59C57",
"@. c #CE8E49",
"#. c #DBA25B",
"$. c #DEAC6A",
"%. c #E4AE65",
"&. c #E2AD6A",
"*. c #E5B472",
"=. c #2A3A97",
"-. c #37398D",
";. c #5D0B83",
":. c #68128F",
">. c #59238A",
",. c #5B2492",
"<. c #6B3091",
"1. c #771DA6",
"2. c #7E3AB9",
"3. c #7937AB",
"4. c #125898",
"5. c #1B4B89",
"6. c #28449B",
"7. c #2C528A",
"8. c #1A6B98",
"9. c #286789",
"0. c #377788",
"q. c #38759B",
"w. c #2D6F90",
"e. c #1757A9",
"r. c #1851A3",
"t. c #2B4FA3",
"y. c #136AAA",
"u. c #076BBA",
"i. c #0171BC",
"p. c #1574B4",
"a. c #1A7CBB",
"s. c #1976B7",
"d. c #0F68AD",
"f. c #2879A8",
"g. c #2868B5",
"h. c #336DAC",
"j. c #51568B",
"k. c #567A93",
"l. c #4C6E90",
"z. c #5154AE",
"x. c #724DAA",
"c. c #4B6BA9",
"v. c #4A70B5",
"b. c #785AAD",
"n. c #1865C2",
"m. c #0576C1",
"M. c #187EC1",
"N. c #0D6BC0",
"B. c #247DC3",
"V. c #3277C7",
"C. c #5072C6",
"Z. c #6C74C9",
"A. c #6F59C4",
"S. c #831AAC",
"D. c #803FB9",
"F. c #A7768C",
"G. c #844CB0",
"H. c #926598",
"J. c #8E4DC3",
"K. c #9466C8",
"L. c #A271CC",
"P. c #3B9B99",
"I. c #3B888E",
"U. c #1A80BE",
"Y. c #2588B9",
"T. c #3687B9",
"R. c #348EAF",
"E. c #3AA6AF",
"W. c #558C8D",
"Q. c #568DB0",
"!. c #4DAFAD",
"~. c #6B99A7",
"^. c #1D88C5",
"/. c #148DCA",
"(. c #288BC5",
"). c #3A86C7",
"_. c #2293CC",
"`. c #2A98C9",
"'. c #3B87D7",
"]. c #2296D1",
"[. c #239AD5",
"{. c #289EDB",
"}. c #3896DD",
"|. c #3796CB",
" X c #26A2DC",
".X c #35B0D1",
"XX c #3998E2",
"oX c #2B9FE1",
"OX c #29ACE3",
"+X c #25A6E1",
"@X c #39A5E3",
"#X c #35B7E5",
"$X c #2AB3E6",
"%X c #4587DC",
"&X c #508CCD",
"*X c #668CC7",
"=X c #5DAADB",
"-X c #4A8BE6",
";X c #5889E7",
":X c #4495E4",
">X c #5291E4",
",X c #6387E5",
"<X c #51B0ED",
"1X c #6FAEF3",
"2X c #66B2D6",
"3X c #31CCEC",
"4X c #2FEBF8",
"5X c #24D4E3",
"6X c #6DD3F9",
"7X c #76E7FB",
"8X c #6CE9F9",
"9X c #57CEDD",
"0X c #978987",
"qX c #988E8F",
"wX c #A99291",
"eX c #B4A39E",
"rX c #ABA19B",
"tX c #94ABB0",
"yX c #BAB8B9",
"uX c #B3ACAA",
"iX c #A58CA6",
"pX c #C0BFBF",
"aX c #C5C0BE",
"sX c #BFB9C3",
"dX c #999BD0",
"fX c #C4B8CC",
"gX c #8DEBF8",
"hX c #B0EEFB",
"jX c #A4C9DF",
"kX c #CAC9C9",
"lX c #D4D4D3",
"zX c #DCDCDD",
"xX c #DDD7D7",
"cX c #D6CAD1",
"vX c #E3D7DA",
"bX c #DCD6FD",
"nX c #E4D5ED",
"mX c #CEF3FD",
"MX c #ECEBEB",
"NX c #E7E4E6",
"BX c #F4F4F4",
"VX c #FAFAFA",
"CX c #EDEDF8",
"ZX c None",
/* pixels */
"ZXZXZXZXZXZXZXZXZXZXZXZXZXZXZXZXZXZXZXZXZXZXZXZXZXZXZXZXZXZXZXZXZXZXZXZXZXZXZXZXZXZXZXZXZXZXZXZXZXZXZXZXZXZXZXZXZXZXZXZXZXZXZXZX",
"ZXZXZXZXZXZXZXZXZXZXZXZXZXZXZXZXZXZXZXZXZXZXZXZXZXZXZXZXZXZXZXZXZXZXZXZXZXZXZXZXZXZXZXZXZXZXZXZXZXZXZXZXZXZXZXZXZXZXZXZXZXZXZXZX",
"ZXZXZXZXZXZXZXZXZXZXZXZXZXZXZXZXZXZXZXZXZXZXZXZXZXZXZXZX# ZXZXZXZXZXZXZXZXZXZXZXZXZXZXZXZXZXZXZXZXZXZXZXZXZXZXZXZXZXZXZXZXZXZXZX",
"ZXZXZXZXZXZXZXZXZXZXZXZXZXZXZXZXZXZXZXZXZXZXZXZXZXZXZXn n ZXZXZXZXZXZXZXZXZXZXZXZXZXZXZXZXZXZXZXZXZXZXZXZXZXZXZXZXZXZXZXZXZXZXZX",
"ZXZXZXZXZXZXZXZXZXZXZXZXZXZXZXZXZXZXZXZXZXZXZXZXZXZXo /.9.ZXZXZXZXZXZXZXZXZXZXZXZXZXZXZXZXZXZXZXZXZXZXZXZXZXZXZXZXZXZXZXZXZXZXZX",
"ZXZXZXZXZXZXZXZXZXZXZXZXZXZXZXZXZXZXZXZXZXZXZXZXZXZXo /.9.ZXZXZXZXZXZXZXZXZXZXZXZXZXZXZXZXZXZXZXZXZXZXZXZXZXZXZXZXZXZXZXZXZXZXZX",
"ZXZXZXZXZXZXZXZXZXZXZXZXZXZXZXZXZXZXZXZXZXZXZXZXZXZXg i.9.ZXZXZXZXZXZXZXZXZXZXZXZXZXZXZXZXZXZXZXZXZXZXZXZXZXZXZXZXZXZXZXZXZXZXZX",
"ZXZXZXZXZXZXZXZXZXZXZXZXZXZXZXZXZXZXZXZXZXZXZXZXZXZXx i.w.ZXZXZXZXZXZXZXZXZXZXZXZXZXZXZXZXZXZXZXZXZXZXZXZXZXZXZXZXZXZXZXZXZXZXZX",
"ZXZXZXZXZXZXZXZXZXZXZXZXZXZXZXZXZXZXZXZXZXZXZXZXZXZXm m.q.= ZXZXZXZXZXZXZXZXZXZXZXZXZXZXZXZXZXZXZXZXZXZXZXZXZXZXZXZXZXZXZXZXZXZX",
"ZXZXZXZXZXZXZXZXZXZXZXZXZXZXZXZXZXZXZXZXZXZXZXZXZX  4.m.q.- ZXZXZXZXZXZXZXZXZXZXZXZXZXZXZXZXZXZXZXZXZXZXZXZXZXZXZXZXZXZXZXZXZXZX",
"ZXZXZXZXZXZXZXZXZXZXZXZXZXZXZXZXZXZXZXZXZXZXZXZXZXX d.i.T.- ZXZXZXZXZXZXZXZXZXZXZXZXZXZXZXZXZXZXZXZXZXZXZXZXZXZXZXZXZXZXZXZXZXZX",
"ZXZXZXZXZXZXZXZXZXZXZXZXZXZXZXZXZXZXZXZXZXZXZXZX+ x m.m.Q.o ZXZXZXZXZXZXZXZXZXZXZXZXZXZXZXZXZXZXZXZXZXZXZXZXZXZXZXZXZXZXZXZXZXZX",
"ZXZXZXZXZXZXZXZXZXZXZXZXZXZXZXZXZXZXZXZXZXZXZX= 0 d.i.m.T.2 ZXZXZXZXZXZXZXZXZXZXZXZXZXZXZXZXZXZXZXZXZXZXZXZXZXZXZXZXZXZXZXZXZXZX",
"ZXZXZXZXZXZXZXZXZXZXZXZXZXZXZXZXZXZXZXZXZXZX# 9 r.i.i.M.).9 ZXZXZXZXZXZXZXZXZXZXZXZXZXZXZXZXZXZXZXZXZXZXZXZXZXZXZXZXZXZXZXZXZXZX",
"ZXZXZXZXZXZXZXZXZXZXZXZXZXZXZXZXZXZXZXZXZX= 0 -.e.i.i.M.).e ZXZXZXZXZXZXZXZXZXZXZXZXZXZXZXbXCXbXZXZXZXZXZXZXZXZXZXZXZXZXZXZXZXZX",
"ZXZXZXZXZXZXZXZXZXZXZXZXZXZXZXZXZXZXZXZX  z =.=.r.i.i.M.C.e ZXZXZXZXZXZXZXZXZXZXZXZXZXZXZXbXCXbXZXZXZXZXZXZXZXZXZXZXZXZXZXZXZXZX",
"ZXZXZXZXZXZXZXZXZXZXZXZXZXZXZXZXZXZXZX- v t.=.r.e.N.u.p.C.9 ZXZXZXZXZXZXZXZXZXZXZXZXZXZXZXZXZXZXZXZXZXZXZXZXZXZXZXZXZXZXZXZXZXZX",
"ZXZXZXZXZXZXZXZXZXZXZXZXZXZXZXZXZXZX- 0.h.=.d.i.m.N.u.f.j.8 ZXZXZXZXZXZXZXZXZXZXZXZXZXZXZXZXZXZXZXZXZXZXZXZXZXZXZXZXZXZXZXZXZXZX",
"ZXZXZXZXZXZXZXZXZXZXZXZXZXZXZXZXZXZXI.h.=.r.u.N.N.N.oX$X XR.P 2 ZXZXZXZXZXZXZXZXZXZXZXZXZXZXZXZXZX6XhXZXZXZXZXZXZXZXZXZXZXZXZXZX",
"ZXZXZXZXZXZXZXZXZXZXZXZXZXZXZXZXZXf .X6.=.u.N.N.n.V.XXOX$XOX#X|.v o ZXZXZXZXZXZXZXZXZXZXZXZXZXZX7X8XmXgXZXZXZXZXZXZXZXZXZXZXZXZX",
"ZXZXZXZXZXZXZXZXZXZXZXZXZXZXZXZXZXI.g.=.e.u.N.N.n.V.;X;X@XOX$X<X<Xl.ZXZXZXZXZXZXZXZXZXZXZXZX7X6X8X7XmXhX7XZXZXZXZXZXZXZXZXZXZXZX",
"ZXZXZXZXZXZXZXZXZXZXZXZXZXZXZXZX  P 7.=.u.N.N.n.V.-X;X;X;X}.[.Q.W.K - ZXZXZXZXZXZXZXZXZXZX6X6X7X8XhXVXmX8X4XZXZXZXZXZXZXZXZXZXZX",
"ZXZXZXZXZXZXZXZXZXZXZXZXZXZXZXZXs W.8 9 5.d.u.e.g.C.c.l.j.i i L H.K.p f 9.c C N 5 ZXZXZXZX1X1X6X7XmXCXhX7X4XZXZXZXZXZXZXZXZXZXZX",
"ZXZXZXZXZXZXZXZXZXZXZXZXZXZXZXZXb |.y y q 9 O t r p p <.<.3.D.D.K.L.G.J ].].`.&X~.~.U ; ZXZX1X1X6XmXhXgX8X5XZXZXZXZXZXZXZXZXZXZX",
"ZXZXZXZXZXZXZXZXZXZXZXZXZXZXo o b &Xy y 1.>.u q w p <.2.D.2.2.D.G.L.L.a T.[.]._.`.=XjXtXD ZX1X1X9XbXhX8X5XZXZXZXZXZXZXZXZXZXZXZX",
"ZXZXZXZXZXZXZXZXZXZXX h n R.`.0.P.Z.y :.S.1.:.,.>.u q w u >.3.3.D.K.dXL q.].]._._.^.2XjXtX; J =X<XhXgX3XZXZXZXCXZXZXZXZXZXZXZXZX",
"ZXZXZXZXZXZXZXZXZXZX- R.$XOXOXw.!.A.;.:.S.S.1.1.,.,.,.>.u u q w a p H.r 9.[.]._._.^.|.jXtX: w c.=XjX2XJ : ZXZXZXZXZXZXZXZXZXZXZX",
"ZXZXZXZXZXZX2 P.P.I.n v  X X Xv b S.y ;.S.S.1.1.1.1.,.,.>.>.>.u q : - o w.[.].]._./.&X2XA u a p K L A w t : # ZXZXZXZXZXZXZXZXZX",
"ZXZXZXZXZXZXP.4X4XOX$X X$X X X(.0.z d e u u u u u u i w e e j j 9.q.Y._.[.[.].].]._.Q.Z = a J.G.G.G.b.Q.k.> ZXZXZXZXZXZXZXZXZXZX",
"ZXZXZXZXZXZX!.4X3XOX X$X X$XOX X X[.]._.Y.Y.Y.f.h.c.V.C.V.'.'.XXXX{. X X X[.].].Y.v > ZXZX, <.x.G.A.2XQ.M ZXZXZXZXZXZXZXZXZXZXZX",
"ZXZXZXZXZXZXf .X4X3X X X$XOX XOX+X+X+X+X+X+XoX-XC.-X-X-X:X:XXXXX}. X X X[.(.f.k o ZXZXZXZXZX: r K K P M ZXZXZXZXZXZXZXZXZXZXZXZX",
"ZXZXZXZXZXZXZX4 I..X3X$X$XOX$XOXOXOXOX$XOX@X-X;X;X;X-X-X-XXXXX{.[.Y.f.0.k g g s ZXZXZXZXZXZXt x.*Xk.ZXZXZXZXZXZXZXZXZXZXZXZXZXZX",
"ZXZXZXZXZXZXZXZXZXo h 0.R.R.R.`.`.`.`.`.C.C.Z.v.v.v.c.l.q.K G G T R o.qXA j.y.8.. ZXZXZXZXZX: 3.*XP ZXZXZXZXZXZXZXZXZXZXZXZXZXZX",
"ZXZXZXZXZXZXZXZXZXZXZXZX  s s h C M - 7 6 6 < H o.qXwXeXF W Q | NXxXyX| t t.y.w.  ZXZXZXZXZXt x.*XC ZXZXZXZXZXZXZXZXZXZXZXZXZXZX",
"ZXZXZXZXZXZXZXZXZXZX. 9 0 4.g E.T I 5 E ' ` ^ H uXpXxXcX! ` ` 6 | H Z < , 7.y.w.ZXZXZXZXZXZXr L.Q.4 ZXZXZXZXZXZXZXZXZXZXZXZXZXZX",
"ZXZXZXZXZXZXZXZXZXf 7.=.5.4.h E.T U I 5 ^ ` ` E 5 G Z 7 3 ^ ~ E 5 l.W.D } g d.n ZXZXZXZXZXZXu K.Q.2 ZXZXmXZXZXZXZXZXZXZXZXZXZXZX",
"ZXZXZXZXZXZXZXZXZXc `.6.=.5.k !.T I I Z 3 ) ) @.! W.c.S Q ] wX] / F 7 H F.r 8.k ZXZXZXZXZXZXa Z.W.ZXZXZXbXZXZXZXZXZXZXZXZXZXZXZX",
"ZXZXZXZXZXZXZXZXZX4 E.h.=.0 b !.I I I U S 3 ' +.#.] 7 / Q H o.! ( / / H iXL l 2 ZXZXZXZXZX# p Z.P ZXZXZXZXZXZXZXZXZXZXZXZXZXZXZX",
"ZXZXZXZXZXZXZXZXZXZXh .Xg.0 I.!.I I I I I 5 ^ ` +.O.] ! H o.0XrXeXeXwX0XiXH.- ZXZXZXZXZXZX= <.*XC ZXZXZXZXZXZXZXZXZXZXZXZXZXZXZX",
"ZXZXZXZXZXZXZXZXZXZXZXb Y.9 W.!.I I I I I I 5 E 7 Y wXaXlXNXNXmXMXMXBXNXyX} @ ZXZXZXZXZXZX1 <.Q.s ZXZXZXZXZXZXZXZXZXZXZXZXZXZXZX",
"ZXZXZXZXZXZXZXZXZXZXZX- c C C !.W.U I I U W.I R uXkXzXNXzXpXwXo.rXnXNXMXvXH d k k d > ZXZX: x.Q.- ZXZXZXZXZXZXZXZXZXZXZXZXZXZXZX",
"ZXZXZXZXZXZXZXZXZXs I.I.h.t.l f W.W.U I P !.~.uXlXzXzXkXyX0XL L 0XcXzXNXcXZ |.}.}.%Xv.> 3 , x.k.ZXZXZXZXZXZXZXZXZXZXZXZXZXZXZXZX",
"ZXZXZXZXZXZXZX4 W.R.h.t.6.t.g.t.c P W.U W.9X~.yXlXkXpXyXsXsXsXsXcXnXCXMXeXs Y. X{.}.%XD X.w x.G ZXZXZXZXZXZXZXZXZXZXZXZXZXZXZXZX",
"ZXZXZXZXZXZXf E.Y.t.6.r.s.(.^.[.`.2 V T U !.!.yXyXpXkXlXlXlXzXNXBXVXVXvX| b n _. X XY.H X.w L { [ 6 ZXZXZXZXZXZXZXZXZXZXZXZXZXZX",
"ZXZXZXZXZXZXc h.=.6.y.s.^.^.].[.{.k 8 V I T !.uXyXpXzXMXMXMXBXVXVXVXCXcXD  X0.v `.[.w./ X.q  .%.%./ ZXZXZXZXZXZXZXZXZXZXZXZXZXZX",
"ZXZXZXZXZXZX. 0 6.e.p.s.^.^.].[.}.w.x 9.4 G T ~.uXaXlXzXMXMXBXBXVXVXMXeXj.@X.Xc f.(.Z O.6 q 7 O.+.6 ZXZXZXZXZXZXZXZXZXZXZXZXZXZX",
"ZXZXZXZXZXZX* : 6.g.s.a.^._.].[.XXq.x s.8.s S T tXyXkXlXMXBXBXVXVXBXvX| v.>X#XE.k l ( / & < X.[ ! ZXZXZXZXZXZXZXZXZXZXZXZXZXZXZX",
"ZXZXZXZXZX& ) ^ 5 7.g.^.^.].[.{.XXq.x p.s.w.M V T tXkXkXzXMXBXVXVXNXeXL ,X,X:X#Xc & ) ) & 7 %.%./ ZXZXZXZXZXZXZXZXZXZXZXZXZXZXZX",
"ZXZXZXZX* ) ..@...7 k f.^.].[.{.%Xl.l p.p.a.g.e B o.yXkXxXMXVXVXMXvX| v.;X,X>X$XE.6 ' ) ( [ [ [ 3 ZXZXZXZXZXZXZXZXZXZXZXZXZXZXZX",
"ZXZXZXZXW ..#.#.+.@._ 7 z f.`.}.>X7.l p.p.p.a.h.e B tXlXlXNXVXBXMXeXK >X,X,X;X<X3XC E E O.&.X.$ ZXZXZXZXZXZXZXZXZXZXZXZXZXZXZXZX",
"ZXZXZX* ) +.%.%.#.#.#.#.O.7 o j j d 8.y.p.a.a.a.h.r M uXxXNXBXMXvXY v.%X;X,X,X:X#XI.@ % ! O.[ ZXZXZXZXZXZXZXZXZXZXZXZXZXZXZXZXZX",
"ZXZXZX% W X.#.%.%.%.%.%.&.X.> 5.4.y.d.y.p.p.a.U.B.c.e Y lXNXMXNXuXK '.>X,X,X,X;X#X.X> ZX: A % ZXZXZXZXZXZXZXZXZXZXZXZXZXZXZXZXZX",
"ZXZXZXZX% & ( +.&.*.*.$.+.O.t 4.d.d.d.y.p.p.s.a.M.V.z.r 0XvXNXvXY h.-X-X;X,X,X,X@X#XV ZXi K ZXZXZXZXZXZXZXZXZXZXZXZXZXZXZXZXZXZX",
"ZXZXZXZXZX% & 6 [ O.$.@./ / 9 4.4.d.d.y.p.p.p.a.a.M.V.z.D vXMXwXz '.%X%X*X*XZ.,X:X3Xb @ i C ZXZXZXZXZXZXZXZXZXZXZXZXZXZXZXZXZXZX",
"ZXZXZXZXZXZX% * $ E _ 3 = . o 8 9 x 8.p.y.p.s.a.B.a.B.z.| vXrXK h.'.h.J N t r L Q.#Xb + i t ZXZXZXZXZXZXZXZXZXZXZXZXZXZXZXZXZXZX",
"ZXZXZXZXZXZXZXZXZX@ % # . X > M B F N 5.y.p.p.a.a.M.B.j.0XwXK Y.'.z - 4 B D } | S N - + i - ZXZXZXZXZXZXZXZXZXZXZXZXZXZXZXZXZXZX",
"ZXZXZXZXZXZXZXZXZXZXZX. X t V M Z } F.F l d.s.a.M.B.(.J F 7.(.(.z . > N C Z I F.wXF # 1 r ZXZXZXZXZXZXZXZXZXZXZXZXZXZXZXZXZXZXZX",
"ZXZXZXZXZXZXZXZXZXZX  X o s M C A Y F.F.N x l 9.9.8.9.o s w.w.z X o s N M Z D | iX0XS : q ZXZXZXZXZXZXZXZXZXZXZXZXZXZXZXZXZXZXZX",
"ZXZXZXZXZXZXZXZXZXZX. X 2 N M A Z U F.wXY @ ZXZXZXZXZXZXZXZXZX@ . O 2 N C Z I | wX0XS : : ZXZXZXZXZXZXZXZXZXZXZXZXZXZXZXZXZXZXZX",
"ZXZXZXZXZXZXZXZXZXZX  . o N M Z Z R qXwXR ; ZXZXZXZXZXZXZXZXZX  X o 8 M M C L Y Y S # # # ZXZXZXZXZXZXZXZXZXZXZXZXZXZXZXZXZXZXZX",
"ZXZXZXZXZXZXZXZXZXZXZXZX# - > 5 S Y R Y B ZXZXZXZXZXZXZXZXZXZXZX    - - ; > ; ; ZXZXZXZXZXZXZXZXZXZXZXZXZXZXZXZXZXZXZXZXZXZXZXZX",
"ZXZXZXZXZXZXZXZXZXZXZXZXZXZXZXZXZX# # ZXZXZXZXZXZXZXZXZXZXZXZXZXZXZXZXZXZXZXZXZXZXZXZXZXZXZXZXZXZXZXZXZXZXZXZXZXZXZXZXZXZXZXZXZX",
"ZXZXZXZXZXZXZXZXZXZXZXZXZXZXZXZXZXZXZXZXZXZXZXZXZXZXZXZXZXZXZXZXZXZXZXZXZXZXZXZXZXZXZXZXZXZXZXZXZXZXZXZXZXZXZXZXZXZXZXZXZXZXZXZX",
"ZXZXZXZXZXZXZXZXZXZXZXZXZXZXZXZXZXZXZXZXZXZXZXZXZXZXZXZXZXZXZXZXZXZXZXZXZXZXZXZXZXZXZXZXZXZXZXZXZXZXZXZXZXZXZXZXZXZXZXZXZXZXZXZX"
};
