/* XPM */
static char *_c2973623bcd47168f3b1d8752ccd885ZaJDSBHCpjIuFHja[] = {
/* columns rows colors chars-per-pixel */
"72 72 4 1 ",
"  c #EDD7AD",
". c #00AC70",
"X c #00BD7B",
"o c #EDD7AD",
/* pixels */
"                             oooooooooooo                               ",
"           XXXXXXXXXXXXXXXXXXXXXXXXXXXXXXXXXXXXXXXXXXXXXXXXXXX          ",
"        XXXXXXXXXXXXXXXXXXXXXXXXXXXXXXXXXXXXXXXXXXXXXXXXXXXXXXXX        ",
"       XXXXXXXXXXXXXXXXXXXXXXXXXXXXXXXXXXXXXXXXXXXXXXXXXXXXXXXXXXX      ",
"     XXXXXXXXXXXXXXXXXXXXXXXXXXXXXXXXXXXXXXXXXXXXXXXXXXXXXXXXXXXXXX     ",
"    XXXXXXXXXXXXXXXXXXXXXXXXXXXXXXXXXXXXXXXXXXXXXXXXXXXXXXXXXXXXXXXX    ",
"    XXXXXXX..................................................XXXXXXXX   ",
"   XXXXXXX....................................................XXXXXXX   ",
"  XXXXXX........................................................XXXXXX  ",
"  XXXXXX.........................................................XXXXXX ",
"  XXXXX..........................................................XXXXXX ",
" XXXXX............................................................XXXXX ",
" XXXXX............................................................XXXXX ",
" XXXXX............................................................XXXXX ",
" XXXXX............................................................XXXXX ",
" XXXXX............................................................XXXXX ",
" XXXXX............................................................XXXXX ",
" XXXXX............................................................XXXXX ",
" XXXXX............................................................XXXXX ",
" XXXXX............................................................XXXXX ",
" XXXXX............................................................XXXXX ",
" XXXXX............................................................XXXXX ",
" XXXXX............................................................XXXXX ",
" XXXXX............................................................XXXXX ",
" XXXXX............................................................XXXXX ",
" XXXXX............................................................XXXXX ",
" XXXXX............................................................XXXXX ",
" XXXXX............................................................XXXXX ",
" XXXXX............................................................XXXXX ",
" XXXXX............................................................XXXXX ",
" XXXXX............................................................XXXXX ",
" XXXXX............................................................XXXXX ",
" XXXXX............................................................XXXXX ",
" XXXXX............................................................XXXXX ",
" XXXXX............................................................XXXXX ",
" XXXXX............................................................XXXXX ",
" XXXXX............................................................XXXXX ",
" XXXXX............................................................XXXXX ",
" XXXXX............................................................XXXXX ",
" XXXXX............................................................XXXXX ",
" XXXXX............................................................XXXXX ",
" XXXXX............................................................XXXXX ",
" XXXXX............................................................XXXXX ",
" XXXXX............................................................XXXXX ",
" XXXXX............................................................XXXXX ",
" XXXXX............................................................XXXXX ",
" XXXXX............................................................XXXXX ",
" XXXXX............................................................XXXXX ",
" XXXXX............................................................XXXXX ",
" XXXXX............................................................XXXXX ",
" XXXXX............................................................XXXXX ",
" XXXXX............................................................XXXXX ",
" XXXXX............................................................XXXXX ",
" XXXXX............................................................XXXXX ",
" XXXXX............................................................XXXXX ",
" XXXXX............................................................XXXXX ",
" XXXXX............................................................XXXXX ",
" XXXXX............................................................XXXXX ",
" XXXXX............................................................XXXXX ",
" XXXXX............................................................XXXXX ",
" XXXXX............................................................XXXXX ",
" XXXXXX...........................................................XXXXX ",
"  XXXXX..........................................................XXXXXX ",
"  XXXXXX........................................................XXXXXX  ",
"   XXXXXX......................................................XXXXXXX  ",
"   XXXXXXXX...................................................XXXXXXX   ",
"    XXXXXXXXXXXXXXXXXXXXXXXXXXXXXXXXXXXXXXXXXXXXXXXXXXXXXXXXXXXXXXXX    ",
"     XXXXXXXXXXXXXXXXXXXXXXXXXXXXXXXXXXXXXXXXXXXXXXXXXXXXXXXXXXXXXX     ",
"      XXXXXXXXXXXXXXXXXXXXXXXXXXXXXXXXXXXXXXXXXXXXXXXXXXXXXXXXXXXX      ",
"        XXXXXXXXXXXXXXXXXXXXXXXXXXXXXXXXXXXXXXXXXXXXXXXXXXXXXXXXX       ",
"         XXXXXXXXXXXXXXXXXXXXXXXXXXXXXXXXXXXXXXXXXXXXXXXXXXXXXX         ",
"                                                                        "
};
